PathFileType	4	(X/Y/Z)	RBDS011\RBDS011runT35.trc
DataRate	CameraRate	NumFrames	NumMarkers	Units	OrigDataRate	OrigDataStartFrame	OrigNumFrames
150.000000	150.000000	4	33	mm	150.000000	1125	4500
Frame#	Time	L.ASIS			L.Heel.Bottom			L.Heel.Lateral			L.Heel.Top			L.Iliac.Crest			L.MT1			L.MT5			L.PSIS			L.Shank.Bottom.Lateral			L.Shank.Bottom.Medial			L.Shank.Top.Lateral			L.Shank.Top.Medial			L.Thigh.Bottom.Lateral			L.Thigh.Bottom.Medial			L.Thigh.Top.Lateral			L.Thigh.Top.Medial			R.ASIS			R.ASY			R.Heel.Bottom			R.Heel.Lateral			R.Heel.Top			R.Iliac.Crest			R.MT1			R.MT5			R.PSIS			R.Shank.Bottom.Lateral			R.Shank.Bottom.Medial			R.Shank.Top.Lateral			R.Shank.Top.Medial			R.Thigh.Bottom.Lateral			R.Thigh.Bottom.Medial			R.Thigh.Top.Lateral			R.Thigh.Top.Medial			
		X1	Y1	Z1	X2	Y2	Z2	X3	Y3	Z3	X4	Y4	Z4	X5	Y5	Z5	X6	Y6	Z6	X7	Y7	Z7	X8	Y8	Z8	X9	Y9	Z9	X10	Y10	Z10	X11	Y11	Z11	X12	Y12	Z12	X13	Y13	Z13	X14	Y14	Z14	X15	Y15	Z15	X16	Y16	Z16	X17	Y17	Z17	X18	Y18	Z18	X19	Y19	Z19	X20	Y20	Z20	X21	Y21	Z21	X22	Y22	Z22	X23	Y23	Z23	X24	Y24	Z24	X25	Y25	Z25	X26	Y26	Z26	X27	Y27	Z27	X28	Y28	Z28	X29	Y29	Z29	X30	Y30	Z30	X31	Y31	Z31	X32	Y32	Z32	X33	Y33	Z33	

1126	7.500000000000001	2328.192471981827	971.8873785564371	922.1508475839106	2279.679517541094	31.97799874108813	1033.316637815561	2304.37386500909	43.49050964562916	993.5544341664694	2292.500301442112	79.9897972727784	1033.554633368466	2264.911014330447	1042.187962994524	895.9409967344311	2508.124509376686	41.26231071083488	1075.13172745005	2477.640813015606	36.95362621585306	959.4629836786439	2168.484774515034	1000.841019723394	1013.729342009804	2361.442071856025	164.3162867967722	967.1246052235916	2323.264572186387	176.9999898567875	1004.484217753596	2363.727424291871	241.4637170512613	945.513935490019	2328.221593494291	254.4894702420596	983.8523491704699	2377.086713916163	603.5969413223754	892.4990634489645	2324.748227515721	576.7868525239288	934.8528256258656	2315.851824478482	694.7055314066093	877.9768216448397	2267.081536877315	669.8227256310661	918.2138230452488	2350.269144662514	948.4409136819285	1167.02010185997	1815.460650011821	351.0898542747272	1135.135654396111	1781.024063061784	539.401002086153	1113.079433126724	1794.207467371742	514.8264039046626	1157.017009193017	1828.430858606677	521.894400036903	1117.943246696096	2319.601649511344	1014.330423179146	1205.232971493966	1757.140346934687	313.7782489544638	1085.563306347856	1748.504761454328	348.4036848242358	1198.919335728997	2180.718872590036	997.4352810240889	1117.281134252016	1897.002764767359	474.1641255646226	1175.316568213084	1904.46122418218	503.7645417032844	1133.216206094635	1980.56546894929	478.5559876188759	1189.756221045456	1983.346614824235	511.5736801440098	1148.315727220788	2240.761321650215	561.0357566213639	1215.051789472776	2189.298193736753	565.3392689522343	1161.399596416191	2232.503693172984	669.5744924127148	1227.877814491527	2182.688626471183	674.4424254845018	1180.279734893792	
1127	7.506666666666667	2326.39805253579	966.9210663780915	921.4877614774057	2256.703993262391	33.05965589339839	1034.072024865293	2281.602154220343	45.01480675732219	994.5503310315981	2270.366600152191	81.00750644580658	1035.278346012353	2263.806274900117	1034.891088742087	895.3625597320541	2485.763066896131	39.03155162662954	1076.538982384627	2454.794552368975	37.04886581869744	960.5000995353046	2167.08030946716	996.2202489882551	1014.293500444722	2344.965400252777	163.7072188011291	969.0104117303925	2306.511131527251	178.5838489834669	1005.413650863016	2351.450053884126	240.5702871964365	946.7429921843525	2315.910232770229	255.6627956972154	984.3760820462122	2374.336103055019	599.2314814400787	892.4542496897886	2322.660942903819	572.913523935832	935.943429972034	2313.119113607509	690.3327581323798	877.8065488208849	2264.90373543227	665.8844694828807	918.9932431603264	2349.683809357783	943.1422093783561	1166.134076418673	1829.787430026314	351.2292878771331	1135.763828741869	1795.286187365656	539.5532221440869	1112.866645946835	1808.612522494548	515.4078832274191	1156.941559111096	1842.676288220496	522.0093185236894	1117.761621593116	2319.170918088476	1007.553189737002	1205.06360084298	1771.35894453208	313.6586755184703	1086.596308872649	1762.969773980732	348.865589798424	1199.805336659557	2179.579777218181	992.3143641815768	1117.419793523479	1911.580883454446	473.6565058838201	1175.821964811734	1919.741363212421	503.0417014568257	1133.796952081669	1995.116720380925	476.7293097106055	1190.847053158611	1998.692460693348	509.5938495644115	1149.30995686398	2250.439132393415	556.0294308056082	1217.243180387972	2198.927559612341	558.1288643898627	1163.700871827288	2238.725672794878	664.3189785982098	1229.198920924379	2188.835767951645	667.1489334870832	1181.498561910375	
1128	7.513333333333334	2324.491882527951	962.4276344165538	920.8410315864583	2233.672275002124	34.15850924556802	1034.652091296018	2258.714352333718	46.53522809168177	995.3241774631945	2247.892790092634	82.04070869042822	1036.62821316673	2262.455602438302	1028.028724455904	894.7496047494004	2463.034519689957	38.03803430187348	1077.487896649106	2431.715199835371	37.67516025074806	961.2512601454006	2165.57199280994	992.2025923854636	1014.812295961091	2327.737318608978	163.5101337188651	970.511068642276	2289.180358421347	180.4459818516575	1006.071011353417	2338.203942735025	239.9302427894736	947.7217967962727	2302.756239652591	256.9778892869218	984.70808907001	2370.725539240081	595.0519547503353	892.5095413474795	2319.473778395828	569.3573729190841	936.9156935675877	2309.884005478599	686.3496803910343	877.6967296169928	2261.996804462762	662.4793306482944	919.6580946085393	2348.843082727847	938.1558455707831	1165.315989798162	1845.114233982257	349.9927691898923	1136.333450877877	1809.364385997159	538.052315683231	1112.998132097741	1823.008336991995	514.3583202593437	1157.154369429243	1856.84250896542	520.7323624966488	1117.811576894997	2317.996037629851	1000.922156538003	1205.001125496586	1786.853489961591	311.9027005497354	1087.455730900532	1778.539238603282	347.3715070631935	1200.598606194064	2178.215401554243	987.719185901107	1117.383141663353	1926.508657041692	472.1126004259648	1176.350615364375	1935.146063030951	501.4362248023368	1134.488848021319	2009.981987083054	474.3432191200681	1191.959611345403	2014.12389689038	507.1696625248387	1150.403922258633	2260.843458420864	551.810655814788	1219.429145369076	2209.113307354454	551.6065596601015	1166.305301932954	2245.547434622204	659.7112082501302	1230.577953502524	2195.413796103436	660.3966244979721	1183.080328616533	
1129	7.52	2322.552971628249	958.518525468048	920.2162448389888	2210.610036339257	35.1629075153175	1035.046767095264	2235.745794678588	47.90869200498209	995.8641339475918	2225.153991052617	82.98138070302302	1037.590444017102	2260.813592482324	1021.851980742588	894.1419543098788	2440.035966933586	37.92517305679752	1077.993353840567	2408.48092185001	38.54627340958805	961.7029141059849	2164.017469230761	988.8423559747823	1015.295522195797	2309.769619110279	163.5378537329019	971.5992953070995	2271.277912940296	182.3597760287877	1006.446892724558	2323.928586330279	239.3829779532165	948.4300506209851	2288.676638714129	258.2341885520268	984.8285145214644	2366.164723996111	591.05617188803	892.6699900822404	2315.015018992186	566.1161857887581	937.6656319390996	2306.123076376562	682.7943443816233	877.6602658552829	2258.27895133611	659.648395586713	920.1439943444018	2347.76054132226	933.6177316685039	1164.625238246663	1861.370509823507	347.4037777594825	1136.839541315559	1823.168249334943	534.9003826460213	1113.493489166923	1837.295554028505	511.6541214636268	1157.674590111573	1870.839048801058	518.077664546184	1118.125836434664	2316.05131507829	994.6293045072202	1205.072945984671	1803.564533853387	308.5335467145324	1088.127892395361	1795.140472988784	343.9291133590602	1201.285873545088	2176.681945189884	983.7245157085074	1117.202349628057	1941.688310368781	469.5704358037417	1176.913779354707	1950.559323644763	498.9958198210393	1135.289879253175	2025.079351649001	471.4770716350598	1193.067719768765	2029.532592128857	504.3856401572991	1151.569684191143	2271.940058552003	548.5298556047916	1221.549254318661	2219.86642772115	545.9255869503462	1169.096042267712	2252.935068445503	655.8871364869995	1231.960313940035	2202.429662789722	654.3217617015994	1184.940770148422	
